<?xml version="1.0" encoding="UTF-8"?>
<svg width="48px" height="48px" viewBox="0 0 48 48" version="1.1" xmlns="http://www.w3.org/2000/svg" xmlns:xlink="http://www.w3.org/1999/xlink">
    <title>Heart Filled</title>
    <g id="Heart-Filled" stroke="none" stroke-width="1" fill="none" fill-rule="evenodd">
        <path d="M24,44.2529221 C23.8113811,44.2511632 23.6247862,44.2138442 23.45,44.1429221 L22.8,43.8929221 C19.8925323,42.5827824 17.1963118,40.8470904 14.8,38.7429221 C11.0958644,35.6818401 8.00185984,31.9500363 5.68,27.7429221 C4.72223586,25.9141883 3.9677335,23.9860156 3.43,21.9929221 C2.85314427,19.8778095 2.56057189,17.6952868 2.56,15.5029221 C2.56253169,11.2965497 4.8115322,7.41183634 8.45808585,5.31511959 C12.1046395,3.21840283 16.5933909,3.22900419 20.23,5.34292205 C21.7226317,6.22638644 23.0082526,7.41993366 24,8.84292205 C24.9917474,7.41993366 26.2773683,6.22638644 27.77,5.34292205 C31.4120888,3.23300515 35.9036594,3.22857545 39.5499029,5.33130442 C43.1961463,7.43403339 45.4419872,11.323818 45.4400013,15.5329221 C45.4340403,17.7143946 45.1449588,19.8858673 44.58,21.9929221 C44.0319211,23.9727014 43.270807,25.887222 42.31,27.7029221 C39.9909279,31.9119358 36.8965186,35.6442277 33.19,38.7029221 C30.7964073,40.8106924 28.0996208,42.5467488 25.19,43.8529221 L24.54,44.1029221 C24.3710222,44.1864034 24.1878252,44.2372915 24,44.2529221 L24,44.2529221 Z" id="Heart" fill="#0071B3"></path>
    </g>
</svg>