<?xml version="1.0" encoding="utf-8"?>
<!-- Generator: Adobe Illustrator 27.7.0, SVG Export Plug-In . SVG Version: 6.00 Build 0)  -->
<svg version="1.1" id="Layer_1" xmlns="http://www.w3.org/2000/svg" xmlns:xlink="http://www.w3.org/1999/xlink" x="0px" y="0px"
	 viewBox="0 0 48 48" style="enable-background:new 0 0 48 48;" xml:space="preserve">
<style type="text/css">
	.st0{fill:#FFFFFF;}
</style>
<g id="House">
	<path id="house" class="st0" d="M34.7,23.9l3,3.3v15.3c0,0.8-0.7,1.5-1.5,1.5l0,0h-25c-0.8,0-1.5-0.7-1.5-1.5l0,0V27.3l3-3.3v17.2
		h22V23.9z M23.7,5c0.1,0,0.2,0,0.2,0c0.1,0,0.2,0,0.3,0.1c0.1,0,0.2,0.1,0.3,0.2c0.1,0,0.1,0.1,0.2,0.1c0,0,0.1,0,0.1,0.1l0,0
		l17.2,19.1c0.6,0.6,0.5,1.6-0.1,2.1c-0.6,0.6-1.6,0.5-2.1-0.1l0,0l-2.1-2.3l-3-3.3l-11-12.2l-11,12.2l-3,3.3l-2.1,2.3
		c-0.6,0.6-1.5,0.7-2.1,0.1c-0.6-0.6-0.7-1.5-0.1-2.1l0,0L22.6,5.5c0,0,0.1,0,0.1-0.1c0,0,0.1-0.1,0.1-0.1c0.1-0.1,0.2-0.2,0.4-0.2
		c0.1,0,0.1,0,0.2,0C23.5,5,23.6,5,23.7,5z"/>
</g>
</svg>
