<?xml version="1.0" encoding="utf-8"?>
<!-- Generator: Adobe Illustrator 27.7.0, SVG Export Plug-In . SVG Version: 6.00 Build 0)  -->
<svg version="1.1" id="Layer_1" xmlns="http://www.w3.org/2000/svg" xmlns:xlink="http://www.w3.org/1999/xlink" x="0px" y="0px"
	 viewBox="0 0 48 48" style="enable-background:new 0 0 48 48;" xml:space="preserve">
<style type="text/css">
	.st0{fill:#FFFFFF;}
</style>
<g id="Menu">
	<path id="menu" class="st0" d="M29.5,32.5c0.8,0,1.5,0.7,1.5,1.5s-0.7,1.5-1.5,1.5h-22C6.7,35.5,6,34.8,6,34s0.7-1.5,1.5-1.5H29.5z
		 M40.5,22.5c0.8,0,1.5,0.7,1.5,1.5s-0.7,1.5-1.5,1.5h-33C6.7,25.5,6,24.8,6,24s0.7-1.5,1.5-1.5H40.5z M37.5,12.5
		c0.8,0,1.5,0.7,1.5,1.5s-0.7,1.5-1.5,1.5h-30C6.7,15.5,6,14.8,6,14s0.7-1.5,1.5-1.5H37.5z"/>
</g>
</svg>
