<?xml version="1.0" encoding="utf-8"?>
<!-- Generator: Adobe Illustrator 27.7.0, SVG Export Plug-In . SVG Version: 6.00 Build 0)  -->
<svg version="1.1" id="Layer_1" xmlns="http://www.w3.org/2000/svg" xmlns:xlink="http://www.w3.org/1999/xlink" x="0px" y="0px"
	 viewBox="0 0 48 48" style="enable-background:new 0 0 48 48;" xml:space="preserve">
<style type="text/css">
	.st0{fill:#FFFFFF;}
</style>
<g id="Avatar-_x2F_-User">
	<path id="avatar" class="st0" d="M24,3C12.4,3,3,12.4,3,24s9.4,21,21,21s21-9.4,21-21c0-5.6-2.2-10.9-6.2-14.8S29.6,3,24,3z
		 M15,39.6V35c0-2.5,2.1-4.5,4.9-4.9C20.3,30,20.6,30,21,30h6c0.4,0,0.7,0,1.1,0.1c2.8,0.4,4.9,2.5,4.9,4.9v4.6
		C27.4,42.8,20.6,42.8,15,39.6z M36,37.4v-2.9c0-0.1,0-0.3-0.1-0.4c-0.5-4-4.3-7.1-8.9-7.1h-0.4h-0.1h-5h-0.1H21
		c-4.6,0-8.4,3.1-8.9,7.1c0,0.1-0.1,0.3-0.1,0.4v2.9c-5.6-5-7.5-12.9-4.8-19.8S16.5,6,24,6s14.2,4.6,16.8,11.6S41.6,32.4,36,37.4
		L36,37.4z M24,9c-4.4,0-8,3.6-8,8s3.6,8,8,8s8-3.6,8-8c0-2.1-0.8-4.2-2.3-5.7C28.2,9.8,26.1,9,24,9z M24,22c-2.8,0-5-2.2-5-5
		s2.2-5,5-5s5,2.2,5,5S26.8,22,24,22L24,22z"/>
</g>
</svg>
